<svg width="159" height="38" viewBox="0 0 159 38" version="1.1" xmlns="http://www.w3.org/2000/svg" xmlns:xlink="http://www.w3.org/1999/xlink">
<title>Group</title>
<g id="Canvas" transform="translate(16273 3446)">
<g id="Group">
<g id="TourHunter">
<use xlink:href="#path0_fill" transform="translate(-16229.1 -3436.31)" fill="#2F3C53"/>
<use xlink:href="#path1_fill" transform="translate(-16229.1 -3436.31)" fill="#2F3C53"/>
<use xlink:href="#path2_fill" transform="translate(-16229.1 -3436.31)" fill="#2F3C53"/>
<use xlink:href="#path3_fill" transform="translate(-16229.1 -3436.31)" fill="#2F3C53"/>
<use xlink:href="#path4_fill" transform="translate(-16229.1 -3436.31)" fill="#2F3C53"/>
<use xlink:href="#path5_fill" transform="translate(-16229.1 -3436.31)" fill="#2F3C53"/>
<use xlink:href="#path6_fill" transform="translate(-16229.1 -3436.31)" fill="#2F3C53"/>
<use xlink:href="#path7_fill" transform="translate(-16229.1 -3436.31)" fill="#2F3C53"/>
<use xlink:href="#path8_fill" transform="translate(-16229.1 -3436.31)" fill="#2F3C53"/>
<use xlink:href="#path9_fill" transform="translate(-16229.1 -3436.31)" fill="#2F3C53"/>
</g>
<g id="Vector">
<use xlink:href="#path10_fill" transform="translate(-16273 -3445.59)" fill="#2F3C53"/>
</g>
<g id="Vector">
<use xlink:href="#path11_fill" transform="translate(-16265.1 -3439.41)" fill="#2F3C53"/>
</g>
<g id="Vector">
<use xlink:href="#path12_fill" transform="translate(-16260 -3432.26)" fill="#FFBA00"/>
</g>
</g>
</g>
<defs>
<path id="path0_fill" d="M 12.9453 0L 0 0L 0 1.01351L 5.97867 1.01351L 5.97867 18.3991L 6.96667 18.3991L 6.96667 1.01351L 12.9453 1.01351L 12.9453 0Z"/>
<path id="path1_fill" d="M 11.8257 14.5269C 11.8257 17.2816 14.2071 18.6329 16.5631 18.6589C 18.9191 18.6329 21.2751 17.2816 21.2751 14.5269L 21.2751 8.80972C 21.2751 6.05506 18.9191 4.70371 16.5631 4.67773C 14.2071 4.70371 11.8257 6.05506 11.8257 8.80972L 11.8257 14.5269ZM 16.5631 5.63926C 18.3871 5.63926 20.3631 6.57481 20.3631 8.80972L 20.3631 14.5269C 20.3631 16.7619 18.3871 17.7234 16.5631 17.7234C 14.7137 17.7234 12.7377 16.7619 12.7377 14.5269L 12.7377 8.80972C 12.7377 6.57481 14.7137 5.63926 16.5631 5.63926Z"/>
<path id="path2_fill" d="M 34.0955 4.9376L 33.1835 4.9376L 33.1835 16.9178C 32.2968 17.3076 30.7515 17.6974 29.3075 17.6974C 27.5088 17.6974 25.6088 16.7099 25.6088 14.5529L 25.6088 4.9376L 24.6968 4.9376L 24.6968 14.5529C 24.6968 17.2556 27.0022 18.607 29.3075 18.6589C 30.9542 18.6589 32.5755 18.2172 34.0955 17.6714L 34.0955 4.9376Z"/>
<path id="path3_fill" d="M 41.3296 4.7297C 39.4042 5.06754 37.8589 6.54882 37.8589 8.75775L 37.8589 18.3991L 38.7709 18.3991L 38.7709 8.75775C 38.7709 7.01659 39.9869 5.95111 41.4056 5.66525C 41.9629 5.5613 42.4696 5.5613 43.0269 5.61327L 43.0269 4.70372C 42.4189 4.65174 41.9376 4.62575 41.3296 4.7297Z"/>
<path id="path4_fill" d="M 48.0668 10.7068L 56.0468 10.7068L 56.0468 18.3991L 58.9855 18.3991L 58.9855 0L 56.0468 0L 56.0468 7.71825L 48.0668 7.71825L 48.0668 0L 45.1282 0L 45.1282 18.3991L 48.0668 18.3991L 48.0668 10.7068Z"/>
<path id="path5_fill" d="M 72.3277 4.9376L 69.5663 4.9376L 69.5663 15.7224C 69.0343 16.0082 68.3503 16.1901 67.6663 16.1901C 66.273 16.1901 64.905 15.5405 64.829 14.0332L 64.829 4.9376L 62.0423 4.9376L 62.0423 13.9812C 62.0423 17.3336 64.4237 18.6329 67.2863 18.6589C 68.933 18.6589 70.7317 18.2431 72.3277 17.5415L 72.3277 4.9376Z"/>
<path id="path6_fill" d="M 75.2056 18.3991L 77.9922 18.3991L 77.9922 7.8222C 78.4736 7.51035 79.1576 7.35443 79.8669 7.35443C 81.2096 7.35443 82.6282 7.97813 82.7042 9.48539L 82.7042 18.3991L 85.4656 18.3991L 85.4656 9.45941C 85.4656 6.00309 82.6789 4.65174 79.6896 4.67773C 78.1189 4.70371 76.4976 5.09353 75.2056 5.7692L 75.2056 18.3991Z"/>
<path id="path7_fill" d="M 93.8915 16.0862C 92.3715 16.0862 90.9781 15.9563 90.9781 13.8253L 90.9781 7.53634L 93.4861 7.53634L 93.4861 4.9376L 90.9781 4.9376L 90.7248 1.76714L 88.2168 1.76714L 88.2168 13.8513C 88.2168 17.2556 90.2688 18.6589 92.8528 18.6589C 93.1821 18.6589 93.5368 18.6329 93.8915 18.581L 93.8915 16.0862Z"/>
<path id="path8_fill" d="M 103.058 14.5269C 102.577 15.5405 101.589 15.8783 100.626 15.8783C 99.4357 15.8783 98.2957 15.1506 98.2957 13.9292L 98.2957 12.9937L 105.794 12.9937L 105.794 9.30348C 105.794 6.15901 103.185 4.67773 100.677 4.67773C 98.093 4.67773 95.4837 6.15901 95.4837 9.30348L 95.4837 14.0332C 95.4837 17.1257 98.093 18.6589 100.677 18.6589C 102.4 18.6589 104.376 17.7494 105.389 15.9043L 103.058 14.5269ZM 103.109 10.6288L 98.2957 10.6288L 98.2957 9.40743C 98.245 8.08207 99.461 7.45838 100.702 7.45838C 101.918 7.45838 103.109 8.10806 103.109 9.35546L 103.109 10.6288Z"/>
<path id="path9_fill" d="M 113.124 4.67773C 112.744 4.67773 111.325 4.80767 110.515 5.24945C 109.121 6.00309 108.083 7.38042 108.083 9.30348L 108.083 18.3991L 110.869 18.3991L 110.869 9.35546C 110.869 7.53634 113.175 6.91264 114.619 7.35443L 114.619 4.83365C 114.036 4.70372 113.555 4.67773 113.124 4.67773Z"/>
<path id="path10_fill" d="M 18.0952 0C 20.9877 0 23.6696 0.648929 26.0662 1.85087C 27.2482 2.44368 27.3081 4.03052 26.2849 4.8682L 19.1853 10.6807C 16.6127 10.3224 14.0838 11.2404 12.2306 13.3228C 10.3993 15.3828 9.85427 18.025 10.5737 20.6448L 6.03329 28.4621C 5.33044 29.6722 3.63582 29.7983 2.90587 28.6044C 1.11329 25.6723 0 22.251 0 18.5848C 0.0218015 8.2624 8.04475 0 18.0952 0Z"/>
<path id="path11_fill" d="M 22.305 2.43092C 22.9972 1.24176 24.6526 1.09955 25.3785 2.2684C 27.1793 5.16778 28.2983 8.70667 28.2983 12.3824C 28.2983 22.5257 20.0792 30.9448 10.2249 30.9448C 7.33122 30.9448 4.64832 30.2062 2.25101 28.9499C 1.07564 28.3339 1.02916 26.7393 2.06486 25.9097L 9.11302 20.2641C 11.6856 20.6448 14.2146 19.7044 16.0677 17.622C 17.7246 15.562 18.2478 12.7407 17.7246 10.3L 22.305 2.43092Z"/>
<path id="path12_fill" d="M 5.10155 0C 7.82673 0 10.2031 2.23913 10.2031 5.23957C 10.2031 8.03848 7.82673 10.4791 5.10155 10.4791C 2.18015 10.4791 -3.32664e-07 8.03848 -3.32664e-07 5.23957C -3.32664e-07 2.26152 2.18015 0 5.10155 0Z"/>
</defs>
</svg>
